<?xml version="1.0" standalone="no"?>
<!DOCTYPE svg PUBLIC "-//W3C//DTD SVG 20010904//EN"
 "http://www.w3.org/TR/2001/REC-SVG-20010904/DTD/svg10.dtd">
<svg version="1.0" xmlns="http://www.w3.org/2000/svg"
 width="260.000000pt" height="260.000000pt" viewBox="0 0 260.000000 260.000000"
 preserveAspectRatio="xMidYMid meet">
<metadata>
Created by potrace 1.14, written by Peter Selinger 2001-2017
</metadata>
<g transform="translate(0.000000,260.000000) scale(0.100000,-0.100000)"
fill="#000000" stroke="none">
<path d="M0 1300 l0 -1300 1300 0 1300 0 0 1300 0 1300 -1300 0 -1300 0 0
-1300z m577 850 c128 0 184 -3 177 -10 -7 -7 -77 -9 -190 -8 l-179 3 0 230 -1
230 3 -222 3 -223 187 0z m473 430 c0 -5 -4 -10 -10 -10 -5 0 -10 5 -10 10 0
6 5 10 10 10 6 0 10 -4 10 -10z m293 3 c-51 -2 -135 -2 -186 0 -50 1 -9 3 93
3 102 0 143 -2 93 -3z m241 -6 c38 -27 -2 -95 -41 -71 -24 15 -28 48 -8 68 20
19 26 20 49 3z m373 -39 c29 -29 53 -56 53 -61 0 -5 -7 -4 -15 3 -13 11 -15 8
-15 -21 0 -19 -4 -40 -9 -47 -13 -21 -52 -10 -69 18 l-16 25 25 -22 c36 -33
47 -29 57 20 7 35 6 45 -11 64 l-19 21 -28 -31 c-28 -31 -28 -32 -49 -13 -23
21 -28 65 -9 84 23 23 53 12 105 -40z m613 7 c0 -32 -41 -59 -75 -51 -14 4
-25 11 -25 16 0 6 7 6 18 -1 12 -7 25 -7 46 0 24 10 28 16 24 41 -2 16 -1 27
4 24 4 -3 8 -16 8 -29z m-746 14 c-8 -14 -74 -42 -81 -35 -3 3 6 8 20 11 15 4
31 13 38 21 14 16 33 19 23 3z m-611 -6 c-24 -2 -62 -2 -85 0 -24 2 -5 4 42 4
47 0 66 -2 43 -4z m150 0 c-13 -2 -33 -2 -45 0 -13 2 -3 4 22 4 25 0 35 -2 23
-4z m-873 -13 c0 -5 -16 -10 -35 -10 -19 0 -35 5 -35 10 0 6 16 10 35 10 19 0
35 -4 35 -10z m718 -17 c-21 -2 -55 -2 -75 0 -21 2 -4 4 37 4 41 0 58 -2 38
-4z m175 0 c-13 -2 -33 -2 -45 0 -13 2 -3 4 22 4 25 0 35 -2 23 -4z m337 -13
c0 -5 -5 -10 -11 -10 -5 0 -7 5 -4 10 3 6 8 10 11 10 2 0 4 -4 4 -10z m610 0
c0 -6 -50 -10 -130 -10 -80 0 -130 4 -130 10 0 6 50 10 130 10 80 0 130 -4
130 -10z m-1685 -10 c4 -6 -35 -10 -109 -10 -71 0 -116 4 -116 10 0 6 43 10
109 10 63 0 112 -4 116 -10z m992 -26 c-3 -3 -12 -4 -19 -1 -8 3 -5 6 6 6 11
1 17 -2 13 -5z m293 -4 c0 -5 -7 -10 -16 -10 -8 0 -12 5 -9 10 3 6 10 10 16
10 5 0 9 -4 9 -10z m400 0 c0 -6 -50 -10 -130 -10 -80 0 -130 4 -130 10 0 6
50 10 130 10 80 0 130 -4 130 -10z m-1185 -10 c4 -6 -12 -10 -42 -9 -43 1 -45
2 -18 9 44 11 53 11 60 0z m65 0 c0 -5 -12 -10 -26 -10 -14 0 -23 4 -19 10 3
6 15 10 26 10 10 0 19 -4 19 -10z m50 0 c12 -8 11 -10 -7 -10 -13 0 -23 5 -23
10 0 13 11 13 30 0z m100 0 c0 -5 -4 -10 -10 -10 -5 0 -10 5 -10 10 0 6 5 10
10 10 6 0 10 -4 10 -10z m-1148 -17 c40 -36 11 -113 -42 -113 -35 0 -53 22
-52 61 2 59 54 88 94 52z m328 7 c0 -6 -27 -10 -60 -10 -33 0 -60 4 -60 10 0
6 27 10 60 10 33 0 60 -4 60 -10z m877 4 c-3 -3 -12 -4 -19 -1 -8 3 -5 6 6 6
11 1 17 -2 13 -5z m1038 -4 c3 -6 -1 -13 -10 -16 -19 -8 -30 0 -20 15 8 14 22
14 30 1z m-2408 -82 c-2 -13 -4 -3 -4 22 0 25 2 35 4 23 2 -13 2 -33 0 -45z
m1189 54 c-7 -12 -136 -14 -136 -2 0 6 29 10 71 10 38 0 68 -4 65 -8z m72 1
c-10 -2 -26 -2 -35 0 -10 3 -2 5 17 5 19 0 27 -2 18 -5z m75 0 c-7 -2 -21 -2
-30 0 -10 3 -4 5 12 5 17 0 24 -2 18 -5z m497 3 c0 -2 -8 -10 -17 -17 -16 -13
-17 -12 -4 4 13 16 21 21 21 13z m450 -6 c0 -6 -50 -10 -130 -10 -80 0 -130 4
-130 10 0 6 50 10 130 10 80 0 130 -4 130 -10z m150 -11 c0 -5 -7 -9 -15 -9
-15 0 -20 12 -9 23 8 8 24 -1 24 -14z m-1870 1 c0 -6 -38 -10 -95 -10 -57 0
-95 4 -95 10 0 6 38 10 95 10 57 0 95 -4 95 -10z m1810 0 c0 -5 -7 -10 -15
-10 -8 0 -15 5 -15 10 0 6 7 10 15 10 8 0 15 -4 15 -10z m-613 -11 c14 -14 6
-39 -12 -39 -18 0 -28 17 -21 35 6 18 18 19 33 4z m756 -12 c3 -8 -3 -13 -14
-13 -11 0 -19 6 -19 13 0 7 6 13 14 13 8 0 16 -6 19 -13z m-338 -7 c4 -6 -23
-10 -74 -10 -47 0 -81 4 -81 10 0 6 31 10 74 10 41 0 78 -4 81 -10z m230 0 c3
-5 -3 -10 -14 -10 -12 0 -21 5 -21 10 0 6 6 10 14 10 8 0 18 -4 21 -10z
m-1795 -16 c0 -2 -55 -3 -122 -2 l-123 2 90 5 c86 6 155 3 155 -5z m505 6 c-3
-5 -26 -10 -50 -10 -24 0 -47 5 -50 10 -4 6 15 10 50 10 35 0 54 -4 50 -10z
m45 0 c0 -5 -7 -10 -15 -10 -8 0 -15 5 -15 10 0 6 7 10 15 10 8 0 15 -4 15
-10z m1344 -36 c35 -35 2 -103 -43 -89 -39 12 -47 55 -18 93 13 17 42 15 61
-4z m-2490 -10 c3 -8 2 -12 -4 -9 -6 3 -10 10 -10 16 0 14 7 11 14 -7z m1069
9 c-13 -2 -35 -2 -50 0 -16 2 -5 4 22 4 28 0 40 -2 28 -4z m732 -39 c25 -14
26 -38 3 -42 -12 -2 -18 3 -18 16 0 10 -9 27 -20 37 -11 10 -20 23 -20 29 1 6
9 2 18 -9 10 -11 27 -25 37 -31z m464 42 c-10 -10 -259 -16 -259 -6 0 6 49 10
132 10 72 0 129 -2 127 -4z m-1779 -16 c0 -6 -28 -10 -65 -10 -37 0 -65 4 -65
10 0 6 28 10 65 10 37 0 65 -4 65 -10z m650 -20 c0 -5 -16 -10 -35 -10 -19 0
-35 5 -35 10 0 6 16 10 35 10 19 0 35 -4 35 -10z m1010 -10 c0 -6 -30 -10 -70
-10 -40 0 -70 4 -70 10 0 6 30 10 70 10 40 0 70 -4 70 -10z m160 0 c0 -5 -13
-10 -30 -10 -16 0 -30 5 -30 10 0 6 14 10 30 10 17 0 30 -4 30 -10z m-1790
-10 c0 -6 -33 -10 -80 -10 -47 0 -80 4 -80 10 0 6 33 10 80 10 47 0 80 -4 80
-10z m548 -17 c-10 -2 -28 -2 -40 0 -13 2 -5 4 17 4 22 1 32 -1 23 -4z m52 -3
c0 -5 -2 -10 -4 -10 -3 0 -8 5 -11 10 -3 6 -1 10 4 10 6 0 11 -4 11 -10z m63
3 c-7 -2 -21 -2 -30 0 -10 3 -4 5 12 5 17 0 24 -2 18 -5z m1017 -19 c-83 -8
-190 -8 -190 -1 0 4 51 6 113 5 61 -1 96 -3 77 -4z m-1695 -14 c-8 -13 -133
-11 -141 1 -3 5 29 9 71 9 50 0 74 -4 70 -10z m130 0 c-3 -5 -31 -10 -61 -10
-30 0 -54 5 -54 10 0 6 27 10 61 10 37 0 58 -4 54 -10z m169 -16 c19 -18 19
-20 6 -45 -6 -10 -19 -19 -30 -19 -16 0 -40 26 -40 44 0 8 31 36 40 36 5 0 16
-7 24 -16z m129 9 c-7 -2 -21 -2 -30 0 -10 3 -4 5 12 5 17 0 24 -2 18 -5z
m182 -3 c-3 -5 -28 -10 -55 -10 -27 0 -52 5 -55 10 -4 6 17 10 55 10 38 0 59
-4 55 -10z m155 0 c0 -6 -30 -10 -70 -10 -40 0 -70 4 -70 10 0 6 30 10 70 10
40 0 70 -4 70 -10z m342 -24 c-31 -29 -35 -38 -26 -53 6 -10 17 -18 25 -18 8
0 13 -8 11 -18 -3 -20 8 -22 28 -4 12 10 12 9 1 -6 -8 -9 -11 -20 -8 -23 12
-13 58 7 67 29 5 12 9 16 9 8 1 -22 -30 -51 -55 -51 -22 0 -94 72 -94 94 0 12
60 76 72 76 4 0 -9 -16 -30 -34z m78 9 c13 -14 21 -25 18 -25 -2 0 -15 11 -28
25 -13 14 -21 25 -18 25 2 0 15 -11 28 -25z m241 -18 c-10 -9 -11 -8 -5 6 3
10 9 15 12 12 3 -3 0 -11 -7 -18z m299 13 c0 -6 -43 -10 -110 -10 -67 0 -110
4 -110 10 0 6 43 10 110 10 67 0 110 -4 110 -10z m-2243 -62 c-2 -13 -4 -3 -4
22 0 25 2 35 4 23 2 -13 2 -33 0 -45z m593 52 c0 -6 -43 -10 -110 -10 -67 0
-110 4 -110 10 0 6 43 10 110 10 67 0 110 -4 110 -10z m353 3 c-7 -2 -21 -2
-30 0 -10 3 -4 5 12 5 17 0 24 -2 18 -5z m257 -13 c0 -5 -5 -10 -11 -10 -5 0
-7 5 -4 10 3 6 8 10 11 10 2 0 4 -4 4 -10z m-62 -7 c-21 -2 -55 -2 -75 0 -21
2 -4 4 37 4 41 0 58 -2 38 -4z m155 0 c-13 -2 -35 -2 -50 0 -16 2 -5 4 22 4
28 0 40 -2 28 -4z m362 -13 c10 -11 16 -20 13 -20 -3 0 -13 9 -23 20 -10 11
-16 20 -13 20 3 0 13 -9 23 -20z m-1487 3 c-21 -2 -57 -2 -80 0 -24 2 -7 4 37
4 44 0 63 -2 43 -4z m1813 -3 c9 13 10 13 6 0 -2 -8 -10 -15 -17 -15 -7 0 -15
7 -17 15 -4 13 -3 13 6 0 10 -13 12 -13 22 0z m536 -167 c-2 -32 -3 -8 -3 52
0 61 1 87 3 58 2 -29 2 -78 0 -110z m-1407 137 c0 -5 -22 -10 -50 -10 -27 0
-50 5 -50 10 0 6 23 10 50 10 28 0 50 -4 50 -10z m166 -1 c3 -5 -31 -9 -76 -9
-53 0 -79 4 -75 10 8 13 143 11 151 -1z m669 -9 c10 -11 16 -20 13 -20 -3 0
-13 9 -23 20 -10 11 -16 20 -13 20 3 0 13 -9 23 -20z m445 -41 c0 -38 1 -39
35 -39 26 0 35 -4 35 -17 0 -25 -40 -63 -67 -63 -66 0 -100 107 -47 149 34 26
44 19 44 -30z m60 11 c15 -27 13 -30 -20 -30 -28 0 -30 3 -30 35 0 32 2 35 20
25 11 -6 24 -19 30 -30z m-2145 -7 c-121 -7 -253 -7 -248 0 2 4 70 6 151 5 81
-1 125 -3 97 -5z m495 3 c0 -2 -8 -10 -17 -17 -16 -13 -17 -12 -4 4 13 16 21
21 21 13z m1357 -28 c-3 -8 -6 -5 -6 6 -1 11 2 17 5 13 3 -3 4 -12 1 -19z
m100 0 c-3 -8 -6 -5 -6 6 -1 11 2 17 5 13 3 -3 4 -12 1 -19z m-27 2 c0 -5 -2
-10 -4 -10 -3 0 -8 5 -11 10 -3 6 -1 10 4 10 6 0 11 -4 11 -10z m-2217 -7 c3
-5 -5 -8 -18 -8 -13 0 -21 3 -18 8 2 4 10 7 18 7 8 0 16 -3 18 -7z m1187 -3
c0 -6 -39 -10 -96 -10 -61 0 -93 4 -89 10 3 6 46 10 96 10 53 0 89 -4 89 -10z
m-1180 -32 c0 -4 -11 -8 -25 -8 -14 0 -25 4 -25 10 0 5 11 9 25 8 14 -1 25 -6
25 -10z m168 6 c19 -6 22 -13 22 -59 0 -51 -1 -54 -30 -60 -56 -12 -70 0 -70
60 0 48 3 54 23 58 12 2 24 5 27 6 3 0 15 -2 28 -5z m755 -6 c6 -19 -3 -38
-19 -38 -8 0 -14 -6 -15 -12 0 -7 -5 0 -9 16 -5 16 -7 33 -4 38 8 13 42 10 47
-4z m97 -12 c0 -11 -19 -15 -25 -6 -3 5 1 10 9 10 9 0 16 -2 16 -4z m60 -6 c0
-5 -7 -10 -15 -10 -8 0 -15 5 -15 10 0 6 7 10 15 10 8 0 15 -4 15 -10z m80 0
c-20 -13 -50 -13 -50 0 0 6 15 10 33 10 24 0 28 -3 17 -10z m50 0 c0 -5 -4
-10 -10 -10 -5 0 -10 5 -10 10 0 6 5 10 10 10 6 0 10 -4 10 -10z m93 -1 c-8
-8 -19 -8 -40 -1 -28 10 -28 10 12 11 28 1 36 -2 28 -10z m-1310 -16 c-7 -2
-21 -2 -30 0 -10 3 -5 5 12 5 17 0 24 -2 18 -5z m729 -32 c11 6 22 9 24 6 2
-2 -23 -18 -56 -36 -33 -18 -60 -30 -60 -27 0 3 13 12 30 21 16 8 29 19 29 23
-1 4 0 16 1 27 2 18 3 18 7 -2 4 -20 7 -21 25 -12z m1349 -11 l32 -39 195 -1
c107 0 197 -2 200 -5 3 -3 -85 -5 -196 -5 -196 0 -203 1 -220 22 -9 12 -27 32
-39 45 -12 13 -18 23 -13 23 5 0 23 -18 41 -40z m-1771 0 c0 -5 -11 -10 -25
-10 -14 0 -25 5 -25 10 0 6 11 10 25 10 14 0 25 -4 25 -10z m684 -36 c9 -8 16
-22 16 -29 0 -15 -27 -45 -40 -45 -20 0 -40 33 -34 54 12 37 34 45 58 20z
m-646 -1 c-15 -2 -42 -2 -60 0 -18 2 -6 4 27 4 33 0 48 -2 33 -4z m108 -89
c-4 -10 -23 -14 -68 -12 l-63 1 60 6 60 6 5 50 4 50 4 -44 c2 -24 1 -50 -2
-57z m601 74 c-3 -8 -6 -5 -6 6 -1 11 2 17 5 13 3 -3 4 -12 1 -19z m608 -3
c33 -32 35 -100 4 -139 -41 -52 -129 -27 -142 41 -18 94 76 161 138 98z m299
9 c21 -21 20 -37 -5 -60 -15 -14 -24 -16 -37 -8 -23 15 -26 48 -7 68 20 20 29
20 49 0z m-1180 -38 c-7 -19 -55 -46 -81 -46 -10 0 -25 5 -33 11 -13 9 -12 10
3 5 11 -4 17 0 18 12 1 16 2 16 6 0 7 -26 30 -22 61 10 30 31 35 33 26 8z
m561 -16 c3 -5 1 -10 -4 -10 -6 0 -11 5 -11 10 0 6 2 10 4 10 3 0 8 -4 11 -10z
m-1350 -20 c0 -7 -6 -15 -12 -17 -8 -3 -13 4 -13 17 0 13 5 20 13 18 6 -3 12
-11 12 -18z m1300 -30 c-5 -8 -11 -8 -17 -2 -6 6 -7 16 -3 22 5 8 11 8 17 2 6
-6 7 -16 3 -22z m-982 13 c-7 -2 -19 -2 -25 0 -7 3 -2 5 12 5 14 0 19 -2 13
-5z m1043 -4 c8 -14 -11 -33 -25 -25 -11 7 -4 36 9 36 5 0 12 -5 16 -11z m116
-38 c2 -28 -1 -47 -6 -43 -5 3 -6 -3 -2 -14 4 -10 4 -15 0 -11 -9 9 -11 117
-2 117 3 0 8 -22 10 -49z m1038 -11 l0 -50 -95 0 c-57 0 -95 4 -95 10 0 6 37
10 90 10 53 0 90 4 90 10 0 6 -37 10 -90 10 -53 0 -90 4 -90 10 0 6 35 10 84
10 47 0 88 5 91 10 4 6 -27 10 -84 10 -54 0 -91 4 -91 10 0 6 38 10 95 10 l95
0 0 -50z m-2000 5 c-29 -31 -90 -35 -111 -7 -11 14 -11 15 1 5 22 -20 84 -16
105 7 10 11 20 20 23 20 3 0 -5 -11 -18 -25z m55 -25 c3 -6 -1 -7 -9 -4 -18 7
-21 14 -7 14 6 0 13 -4 16 -10z m-397 -7 c-15 -2 -42 -2 -60 0 -18 2 -6 4 27
4 33 0 48 -2 33 -4z m570 0 c-10 -2 -28 -2 -40 0 -13 2 -5 4 17 4 22 1 32 -1
23 -4z m175 0 c-7 -2 -19 -2 -25 0 -7 3 -2 5 12 5 14 0 19 -2 13 -5z m445 -15
c-3 -7 -11 -13 -18 -13 -7 0 -15 6 -17 13 -3 7 4 12 17 12 13 0 20 -5 18 -12z
m-968 -2 c0 -2 -8 -10 -17 -17 -16 -13 -17 -12 -4 4 13 16 21 21 21 13z m155
-6 c3 -5 2 -10 -4 -10 -5 0 -13 5 -16 10 -3 6 -2 10 4 10 5 0 13 -4 16 -10z
m-105 -38 c0 -15 -2 -15 -10 -2 -13 20 -13 33 0 25 6 -3 10 -14 10 -23z m475
18 c9 8 15 9 15 2 0 -6 -4 -14 -10 -17 -5 -3 -11 -25 -11 -48 l-2 -42 -7 44
c-4 25 -12 47 -18 49 -7 2 -12 8 -12 14 0 6 6 6 15 -2 12 -10 18 -10 30 0z
m943 3 c-10 -2 -26 -2 -35 0 -10 3 -2 5 17 5 19 0 27 -2 18 -5z m-1860 -33
c-7 -11 -16 -20 -21 -20 -4 0 -3 9 3 20 6 11 15 20 20 20 6 0 5 -9 -2 -20z
m283 10 c26 -15 44 -53 105 -225 75 -216 74 -213 84 -195 8 14 110 298 125
348 3 12 18 36 32 52 21 26 32 30 73 30 42 0 52 -4 74 -31 l26 -31 0 -309 c0
-193 -4 -318 -10 -329 -17 -32 -48 -43 -80 -30 -16 7 -32 19 -37 28 -4 10 -10
109 -13 221 l-5 204 -69 -192 c-39 -105 -75 -195 -80 -200 -6 -5 -21 -12 -33
-15 -41 -13 -65 28 -132 222 -35 100 -68 182 -72 182 -5 0 -9 -94 -9 -209 l0
-210 -26 -20 c-34 -27 -47 -26 -81 3 l-28 24 1 229 c3 446 1 411 29 438 26 27
89 34 126 15z m943 -13 c13 -13 43 -82 73 -172 28 -83 75 -220 104 -306 59
-173 60 -199 7 -228 -25 -14 -29 -14 -54 5 -18 13 -35 42 -48 81 -21 60 -36
88 -36 65 0 -17 -217 -17 -222 0 -2 6 -15 -19 -29 -57 -30 -86 -66 -118 -106
-95 -55 31 -53 44 58 377 70 212 109 314 125 330 32 32 96 32 128 0z m878 5
c-1 -8 2 -11 6 -8 21 13 45 -45 142 -336 93 -282 100 -310 88 -335 -7 -14 -25
-31 -40 -35 -44 -15 -74 13 -100 93 -12 38 -26 69 -30 69 -4 0 -8 -4 -8 -10 0
-6 -44 -10 -111 -10 -71 0 -108 4 -104 10 3 6 3 10 -2 10 -4 0 -21 -34 -36
-76 -31 -83 -59 -105 -104 -85 -54 25 -52 41 59 374 116 349 122 360 197 355
32 -2 45 -7 43 -16z m-237 -2 c-3 -5 -15 -10 -26 -10 -10 0 -19 5 -19 10 0 6
12 10 26 10 14 0 23 -4 19 -10z m-1805 -10 c0 -5 -4 -10 -10 -10 -5 0 -10 5
-10 10 0 6 5 10 10 10 6 0 10 -4 10 -10z m1300 0 c0 -5 -4 -10 -10 -10 -5 0
-10 5 -10 10 0 6 5 10 10 10 6 0 10 -4 10 -10z m307 -39 c9 -12 12 -95 13
-313 0 -163 -3 -304 -6 -313 -9 -22 -61 -47 -84 -40 -11 3 -29 18 -40 32 -19
24 -20 40 -20 312 0 265 1 288 19 318 29 46 84 48 118 4z m-1252 19 c-3 -5
-11 -10 -16 -10 -6 0 -7 5 -4 10 3 6 11 10 16 10 6 0 7 -4 4 -10z m1418 -10
c-3 -11 -1 -20 5 -20 6 0 13 8 15 18 4 15 5 15 6 0 0 -9 -4 -20 -10 -24 -15
-9 -33 12 -26 30 9 23 16 20 10 -4z m681 -12 c16 -26 -16 -57 -38 -38 -17 13
-21 42 -9 54 11 11 35 3 47 -16z m-77 6 c-3 -3 -12 -4 -19 -1 -8 3 -5 6 6 6
11 1 17 -2 13 -5z m-2457 -75 c0 -5 -4 -9 -10 -9 -5 0 -10 7 -10 16 0 8 5 12
10 9 6 -3 10 -10 10 -16z m2400 6 c0 -11 -11 -15 -39 -15 -38 0 -57 10 -44 24
3 3 24 6 45 6 27 0 38 -4 38 -15z m88 -26 c-21 -12 -24 -49 -5 -68 10 -11 9
-13 -3 -9 -32 10 -19 89 14 88 6 0 3 -5 -6 -11z m-2438 -29 c-17 -13 -28 -16
-37 -8 -7 5 -18 6 -25 2 -10 -6 -9 -3 1 9 11 14 17 15 28 5 11 -9 18 -8 30 5
9 9 19 14 22 11 3 -3 -5 -14 -19 -24z m900 14 c0 -8 -5 -12 -10 -9 -6 4 -8 11
-5 16 9 14 15 11 15 -7z m-876 -59 c-4 -8 -10 -12 -15 -9 -11 6 -2 24 11 24 5
0 7 -7 4 -15z m2436 -35 c0 -5 -4 -10 -10 -10 -5 0 -10 5 -10 10 0 6 5 10 10
10 6 0 10 -4 10 -10z m-100 -60 c0 -5 -11 -10 -25 -10 -14 0 -25 5 -25 10 0 6
11 10 25 10 14 0 25 -4 25 -10z m-2380 -55 c12 -15 5 -55 -11 -55 -5 0 -10
-24 -11 -52 l-2 -53 -3 47 c-2 25 -11 52 -19 58 -17 15 -18 42 -2 58 16 16 33
15 48 -3z m2500 -5 c0 -5 -4 -10 -10 -10 -5 0 -10 5 -10 10 0 6 5 10 10 10 6
0 10 -4 10 -10z m-2523 -487 c-1 -54 -3 -10 -3 97 0 107 2 151 3 98 2 -54 2
-142 0 -195z m2514 250 c10 -11 10 -14 2 -9 -9 5 -13 -1 -13 -23 0 -16 6 -32
13 -34 6 -3 -1 -5 -18 -5 -16 0 -24 2 -17 5 6 2 12 18 12 35 0 24 -3 29 -16
24 -14 -5 -15 -4 -4 9 16 19 24 19 41 -2z m-2097 -115 c6 -4 35 -8 64 -8 45 0
57 4 79 28 27 27 23 12 -5 -20 -11 -14 -30 -18 -75 -18 -63 0 -97 17 -97 49 1
12 3 11 12 -4 6 -11 16 -23 22 -27z m876 -8 c12 -16 17 -30 11 -30 -6 0 -11 5
-11 10 0 6 -9 19 -20 30 -11 11 -16 20 -11 20 5 0 19 -13 31 -30z m680 15 c-7
-8 -20 -30 -29 -47 -9 -18 -23 -34 -31 -36 -10 -2 -11 -1 -4 5 6 4 21 27 33
51 12 23 26 42 32 42 8 0 7 -5 -1 -15z m-820 -35 c0 -5 -5 -10 -11 -10 -5 0
-7 5 -4 10 3 6 8 10 11 10 2 0 4 -4 4 -10z m30 -6 c0 -8 -4 -12 -10 -9 -5 3
-10 10 -10 16 0 5 5 9 10 9 6 0 10 -7 10 -16z m30 6 c0 -5 -5 -10 -11 -10 -5
0 -7 5 -4 10 3 6 8 10 11 10 2 0 4 -4 4 -10z m30 0 c0 -5 -5 -10 -11 -10 -5 0
-7 5 -4 10 3 6 8 10 11 10 2 0 4 -4 4 -10z m-556 -40 c10 -13 9 -13 -6 -1 -10
7 -18 21 -17 30 0 13 1 14 6 1 3 -8 11 -22 17 -30z m-614 5 c14 -19 14 -19 -2
-6 -10 7 -18 18 -18 24 0 6 1 8 3 6 1 -2 9 -13 17 -24z m2018 9 c22 -15 30
-44 13 -44 -5 0 -14 7 -21 15 -7 8 -21 15 -32 15 -10 0 -21 -7 -24 -15 -7 -17
-34 -21 -34 -5 0 16 39 50 58 50 10 0 28 -7 40 -16z m-767 -11 c13 -16 12 -17
-3 -4 -17 13 -22 21 -14 21 2 0 10 -8 17 -17z m1194 -2 c3 -5 -9 -11 -27 -13
-27 -2 -34 -8 -36 -29 -6 -51 49 -64 68 -17 8 22 9 22 9 3 2 -42 -53 -62 -79
-30 -18 22 -15 66 6 82 21 15 50 17 59 4z m-1450 -11 c3 -5 1 -10 -4 -10 -6 0
-11 5 -11 10 0 6 2 10 4 10 3 0 8 -4 11 -10z m-27 -73 c2 -19 -1 -27 -12 -27
-11 0 -16 10 -16 31 0 38 24 35 28 -4z m986 18 c3 -8 14 -15 24 -15 11 0 25 7
32 15 15 18 30 20 30 3 0 -20 -32 -48 -57 -48 -23 0 -63 31 -63 50 0 16 27 12
34 -5z m-654 -30 c0 -8 -4 -17 -10 -20 -6 -4 -7 1 -3 11 5 14 3 16 -12 11 -15
-6 -16 -5 -5 8 14 16 30 11 30 -10z m-1300 5 c0 -5 -4 -10 -10 -10 -5 0 -10 5
-10 10 0 6 5 10 10 10 6 0 10 -4 10 -10z m30 0 c0 -5 -4 -10 -10 -10 -5 0 -10
5 -10 10 0 6 5 10 10 10 6 0 10 -4 10 -10z m30 0 c0 -5 -5 -10 -11 -10 -5 0
-7 5 -4 10 3 6 8 10 11 10 2 0 4 -4 4 -10z m40 0 c0 -5 -4 -10 -10 -10 -5 0
-10 5 -10 10 0 6 5 10 10 10 6 0 10 -4 10 -10z m540 -16 c0 -2 -11 -4 -25 -4
-14 0 -25 4 -25 9 0 4 11 6 25 3 14 -2 25 -6 25 -8z m160 6 c0 -5 -7 -10 -15
-10 -8 0 -15 5 -15 10 0 6 7 10 15 10 8 0 15 -4 15 -10z m407 -16 c-3 -4 -14
-3 -24 0 -15 6 -15 8 -3 16 16 10 39 -4 27 -16z m253 11 c0 -8 -9 -15 -20 -15
-11 0 -20 7 -20 15 0 8 9 15 20 15 11 0 20 -7 20 -15z m180 -5 c0 -5 -20 -10
-44 -10 -25 0 -48 5 -51 10 -4 6 13 10 44 10 28 0 51 -4 51 -10z m-1640 -24
c0 -3 -4 -8 -10 -11 -5 -3 -10 -1 -10 4 0 6 5 11 10 11 6 0 10 -2 10 -4z m30
-6 c0 -5 -4 -10 -10 -10 -5 0 -10 5 -10 10 0 6 5 10 10 10 6 0 10 -4 10 -10z
m70 0 c0 -5 -4 -10 -10 -10 -5 0 -10 5 -10 10 0 6 5 10 10 10 6 0 10 -4 10
-10z m870 0 c0 -5 -7 -10 -15 -10 -8 0 -15 5 -15 10 0 6 7 10 15 10 8 0 15 -4
15 -10z m1125 0 c3 -5 1 -19 -6 -31 l-11 -21 -22 21 c-18 19 -19 23 -6 31 19
13 37 13 45 0z m-415 -10 c0 -6 -28 -10 -64 -10 -36 0 -68 5 -71 10 -4 6 20
10 64 10 41 0 71 -4 71 -10z m363 -28 c13 -14 14 -21 5 -30 -17 -17 -43 -15
-59 4 -11 14 -10 18 6 30 24 18 29 18 48 -4z m105 2 c18 -13 21 -19 11 -30
-25 -31 -76 -7 -58 28 12 22 18 22 47 2z m-383 -14 c-3 -6 -52 -10 -111 -10
-63 0 -104 4 -104 10 0 6 44 10 111 10 71 0 108 -4 104 -10z m-520 -10 c4 -6
-10 -10 -34 -10 -23 0 -41 5 -41 10 0 6 15 10 34 10 19 0 38 -4 41 -10z m1085
-10 c43 -43 10 -120 -45 -106 -48 12 -53 89 -8 115 25 15 30 14 53 -9z m-2070
-10 c0 -5 -11 -10 -24 -10 -14 0 -28 5 -31 10 -4 6 7 10 24 10 17 0 31 -4 31
-10z m70 0 c0 -5 -4 -10 -10 -10 -5 0 -10 5 -10 10 0 6 5 10 10 10 6 0 10 -4
10 -10z m40 0 c0 -5 -4 -10 -10 -10 -5 0 -10 5 -10 10 0 6 5 10 10 10 6 0 10
-4 10 -10z m30 0 c0 -5 -4 -10 -10 -10 -5 0 -10 5 -10 10 0 6 5 10 10 10 6 0
10 -4 10 -10z m40 0 c0 -5 -4 -10 -10 -10 -5 0 -10 5 -10 10 0 6 5 10 10 10 6
0 10 -4 10 -10z m30 0 c0 -5 -4 -10 -10 -10 -5 0 -10 5 -10 10 0 6 5 10 10 10
6 0 10 -4 10 -10z m40 0 c0 -5 -4 -10 -10 -10 -5 0 -10 5 -10 10 0 6 5 10 10
10 6 0 10 -4 10 -10z m30 0 c0 -5 -4 -10 -10 -10 -5 0 -10 5 -10 10 0 6 5 10
10 10 6 0 10 -4 10 -10z m65 0 c-3 -5 -15 -10 -26 -10 -10 0 -19 5 -19 10 0 6
12 10 26 10 14 0 23 -4 19 -10z m115 2 c0 -4 -17 -6 -37 -4 -59 5 -63 10 -10
11 26 1 47 -3 47 -7z m1370 -7 c13 -16 6 -35 -14 -35 -22 0 -37 25 -24 38 16
16 23 15 38 -3z m-300 -5 c0 -6 -46 -10 -119 -10 -69 0 -122 4 -126 10 -4 6
38 10 119 10 77 0 126 -4 126 -10z m-1603 -107 c-2 -21 -4 -4 -4 37 0 41 2 58
4 38 2 -21 2 -55 0 -75z m1016 100 c-7 -2 -19 -2 -25 0 -7 3 -2 5 12 5 14 0
19 -2 13 -5z m-336 -9 c-3 -3 -12 -4 -19 -1 -8 3 -5 6 6 6 11 1 17 -2 13 -5z
m1173 -9 c10 -12 10 -18 0 -30 -16 -19 -34 -19 -51 1 -11 14 -10 18 6 30 24
18 30 18 45 -1z m120 -20 c0 -19 -38 -29 -56 -14 -13 10 -12 14 2 30 13 14 21
16 35 8 11 -5 19 -16 19 -24z m-1940 9 c0 -8 -5 -12 -10 -9 -6 4 -8 11 -5 16
9 14 15 11 15 -7z m40 1 c0 -8 -4 -15 -10 -15 -5 0 -10 7 -10 15 0 8 5 15 10
15 6 0 10 -7 10 -15z m40 0 c0 -8 -4 -15 -10 -15 -5 0 -10 7 -10 15 0 8 5 15
10 15 6 0 10 -7 10 -15z m34 -6 c-3 -5 -10 -7 -15 -3 -5 3 -7 10 -3 15 3 5 10
7 15 3 5 -3 7 -10 3 -15z m36 6 c0 -8 -4 -15 -10 -15 -5 0 -10 7 -10 15 0 8 5
15 10 15 6 0 10 -7 10 -15z m40 0 c0 -8 -4 -15 -10 -15 -5 0 -10 7 -10 15 0 8
5 15 10 15 6 0 10 -7 10 -15z m40 -6 c0 -5 -4 -9 -10 -9 -5 0 -10 7 -10 16 0
8 5 12 10 9 6 -3 10 -10 10 -16z m37 -5 c-9 -9 -28 6 -21 18 4 6 10 6 17 -1 6
-6 8 -13 4 -17z m37 5 c-3 -5 -10 -7 -15 -3 -5 3 -7 10 -3 15 3 5 10 7 15 3 5
-3 7 -10 3 -15z m36 5 c0 -8 -5 -12 -10 -9 -6 4 -8 11 -5 16 9 14 15 11 15 -7z
m47 0 c-3 -3 -12 -4 -19 -1 -8 3 -5 6 6 6 11 1 17 -2 13 -5z m636 -1 c-13 -2
-35 -2 -50 0 -16 2 -5 4 22 4 28 0 40 -2 28 -4z m509 0 c-40 -2 -103 -2 -140
0 -37 2 -4 3 73 3 77 0 107 -2 67 -3z m344 -52 c-9 -14 -43 -14 -51 0 -4 6 1
17 11 24 16 12 21 12 33 0 7 -7 10 -18 7 -24z m-1866 4 c0 -8 -4 -15 -10 -15
-5 0 -10 7 -10 15 0 8 5 15 10 15 6 0 10 -7 10 -15z m40 -6 c0 -5 -4 -9 -10
-9 -5 0 -10 7 -10 16 0 8 5 12 10 9 6 -3 10 -10 10 -16z m40 0 c0 -5 -4 -9
-10 -9 -5 0 -10 7 -10 16 0 8 5 12 10 9 6 -3 10 -10 10 -16z m40 0 c0 -5 -4
-9 -10 -9 -5 0 -10 7 -10 16 0 8 5 12 10 9 6 -3 10 -10 10 -16z m26 -6 c-10
-10 -19 5 -10 18 6 11 8 11 12 0 2 -7 1 -15 -2 -18z m44 12 c0 -8 -4 -15 -10
-15 -5 0 -10 7 -10 15 0 8 5 15 10 15 6 0 10 -7 10 -15z m80 -6 c0 -5 -4 -9
-10 -9 -5 0 -10 7 -10 16 0 8 5 12 10 9 6 -3 10 -10 10 -16z m35 12 c3 -5 1
-12 -5 -16 -5 -3 -10 1 -10 9 0 18 6 21 15 7z m36 -14 c-13 -13 -26 -3 -16 12
3 6 11 8 17 5 6 -4 6 -10 -1 -17z m35 -4 c-10 -10 -19 5 -10 18 6 11 8 11 12
0 2 -7 1 -15 -2 -18z m734 17 c0 -5 -7 -10 -15 -10 -8 0 -15 5 -15 10 0 6 7
10 15 10 8 0 15 -4 15 -10z m-880 -10 c0 -5 -4 -10 -10 -10 -5 0 -10 5 -10 10
0 6 5 10 10 10 6 0 10 -4 10 -10z m1580 -15 c14 -17 7 -45 -13 -45 -7 0 -22 6
-32 14 -16 12 -17 16 -6 30 17 20 35 20 51 1z m111 4 c20 -10 20 -11 3 -30
-21 -23 -37 -24 -54 -4 -10 12 -10 18 0 30 15 18 25 19 51 4z m-1891 -29 c0
-5 -11 -10 -25 -10 -14 0 -25 5 -25 10 0 6 11 10 25 10 14 0 25 -4 25 -10z
m350 0 c0 -5 -22 -10 -50 -10 -27 0 -50 5 -50 10 0 6 23 10 50 10 28 0 50 -4
50 -10z m561 -33 c10 -18 6 -17 -20 7 -36 34 -39 41 -11 26 11 -6 25 -20 31
-33z m917 -14 c-14 -14 -20 -14 -33 -3 -14 12 -14 15 2 32 15 17 18 17 32 3
14 -13 14 -17 -1 -32z m-1169 34 c-2 -1 -15 -11 -29 -22 l-25 -20 19 23 c11
12 24 22 29 22 6 0 8 -1 6 -3z m229 -35 c20 -30 11 -28 -19 4 -13 15 -18 25
-10 22 8 -2 21 -14 29 -26z m-610 12 c-7 -7 -249 -6 -256 1 -3 3 55 5 128 5
73 0 131 -3 128 -6z m958 -18 c3 -14 3 -30 -1 -35 -4 -7 -50 -11 -116 -11
l-109 0 0 28 c0 16 3 32 7 35 3 4 53 7 109 7 102 0 104 0 110 -24z m-576 10
c0 -2 -8 -10 -17 -17 -16 -13 -17 -12 -4 4 13 16 21 21 21 13z m205 -17 c11
-16 1 -19 -13 -3 -7 8 -8 14 -3 14 5 0 13 -5 16 -11z m1110 -4 c-27 -8 -51
-12 -54 -10 -7 7 49 22 84 23 11 0 -2 -6 -30 -13z m-1223 -15 c10 0 18 5 18
10 0 20 19 9 32 -17 8 -17 21 -28 33 -28 16 0 19 -6 17 -28 -2 -19 3 -33 15
-43 17 -14 17 -14 -1 -28 -13 -11 -17 -22 -12 -41 6 -22 2 -27 -24 -36 -19 -7
-30 -18 -30 -30 0 -22 -12 -24 -40 -7 -15 10 -22 10 -32 0 -17 -17 -25 -15
-31 8 -3 11 -16 24 -28 29 -17 6 -24 17 -25 41 -1 18 -8 36 -15 41 -11 6 -10
12 4 27 10 10 16 30 15 43 -2 13 2 24 7 24 18 1 41 20 49 39 5 15 9 17 18 8 7
-7 20 -12 30 -12z m1351 7 c-3 -5 8 -23 23 -40 l29 -32 -30 27 c-16 15 -43 34
-59 42 l-29 15 35 -2 c20 -1 34 -6 31 -10z m-803 -7 c0 -5 -4 -10 -10 -10 -5
0 -10 5 -10 10 0 6 5 10 10 10 6 0 10 -4 10 -10z m378 -63 c3 -52 1 -57 -18
-57 -18 0 -20 6 -20 61 0 52 2 60 18 57 13 -2 18 -15 20 -61z m-138 33 c0 -6
-49 -10 -126 -10 -81 0 -123 4 -119 10 4 6 57 10 126 10 73 0 119 -4 119 -10z
m40 0 c0 -5 -4 -10 -10 -10 -5 0 -10 5 -10 10 0 6 5 10 10 10 6 0 10 -4 10
-10z m-1353 -92 c-2 -18 -4 -6 -4 27 0 33 2 48 4 33 2 -15 2 -42 0 -60z m-259
23 c2 -19 1 -44 -2 -57 -6 -21 -12 -24 -51 -24 l-45 0 0 61 0 60 48 -3 c45 -3
47 -4 50 -37z m120 -24 l3 -58 -48 3 -48 3 -3 58 -3 58 48 -3 48 -3 3 -58z
m970 51 c-6 -18 -28 -21 -28 -4 0 9 7 16 16 16 9 0 14 -5 12 -12z m482 -8 c0
-6 -48 -10 -125 -10 -77 0 -125 4 -125 10 0 6 48 10 125 10 77 0 125 -4 125
-10z m40 0 c0 -5 -4 -10 -10 -10 -5 0 -10 5 -10 10 0 6 5 10 10 10 6 0 10 -4
10 -10z m599 -39 c0 -14 -1 -14 -6 -1 -3 8 -10 24 -15 35 -9 20 -9 20 6 1 9
-11 16 -27 15 -35z m-2385 10 c3 -5 -3 -11 -14 -14 -13 -3 -20 0 -20 9 0 15
26 19 34 5z m1796 -13 c0 -10 -38 -14 -150 -16 -128 -2 -150 0 -150 13 0 13
23 15 150 15 113 0 150 -3 150 -12z m-1320 -24 c0 -8 -5 -12 -10 -9 -6 4 -8
11 -5 16 9 14 15 11 15 -7z m27 -6 c-3 -8 -6 -5 -6 6 -1 11 2 17 5 13 3 -3 4
-12 1 -19z m38 13 c3 -5 1 -12 -5 -16 -5 -3 -10 1 -10 9 0 18 6 21 15 7z m35
-7 c0 -8 -5 -12 -10 -9 -6 4 -8 11 -5 16 9 14 15 11 15 -7z m27 -6 c-3 -8 -6
-5 -6 6 -1 11 2 17 5 13 3 -3 4 -12 1 -19z m736 12 c15 0 27 -4 27 -10 0 -5
-15 -10 -34 -10 -19 0 -36 -6 -39 -12 -3 -10 -9 -10 -26 0 -11 6 -30 12 -41
12 -11 0 -20 5 -20 11 0 6 9 9 19 6 10 -2 25 -1 32 4 8 5 23 7 34 4 11 -2 32
-5 48 -5z m97 0 c0 -5 -7 -10 -15 -10 -8 0 -15 5 -15 10 0 6 7 10 15 10 8 0
15 -4 15 -10z m-745 -10 c-3 -5 -19 -10 -36 -10 -16 0 -29 5 -29 10 0 6 16 10
36 10 21 0 33 -4 29 -10z m1095 -30 c0 -6 -55 -10 -145 -10 -90 0 -145 4 -145
10 0 6 55 10 145 10 90 0 145 -4 145 -10z m-1867 -32 c-9 -73 -12 -79 -41 -76
-23 3 -27 8 -30 42 -5 54 2 66 41 66 32 0 33 -2 30 -32z m277 22 c0 -5 -4 -10
-10 -10 -5 0 -10 5 -10 10 0 6 5 10 10 10 6 0 10 -4 10 -10z m597 -6 c8 -21
-13 -42 -28 -27 -13 13 -5 43 11 43 6 0 13 -7 17 -16z m-149 -6 c-3 -9 -30
-14 -76 -16 -60 -2 -72 0 -72 13 0 12 14 15 76 15 56 0 75 -3 72 -12z m792 2
c0 -5 -7 -10 -15 -10 -8 0 -15 5 -15 10 0 6 7 10 15 10 8 0 15 -4 15 -10z
m-1265 -75 l0 -60 -45 0 -45 0 -3 62 c-3 68 3 75 63 63 29 -6 30 -7 30 -65z
m113 66 c18 -2 16 -105 -2 -120 -8 -7 -30 -11 -48 -9 -32 3 -33 4 -36 57 -5
82 -7 80 86 72z m1502 -11 c0 -6 -55 -10 -145 -10 -90 0 -145 4 -145 10 0 6
55 10 145 10 90 0 145 -4 145 -10z m-350 -20 c0 -5 -7 -10 -15 -10 -8 0 -15 5
-15 10 0 6 7 10 15 10 8 0 15 -4 15 -10z m950 -9 c0 -6 -4 -12 -8 -15 -5 -3
-9 1 -9 9 0 8 4 15 9 15 4 0 8 -4 8 -9z m-600 -21 c0 -6 -55 -10 -145 -10 -90
0 -145 4 -145 10 0 6 55 10 145 10 90 0 145 -4 145 -10z m-1339 -67 c-3 -81
-11 -80 -11 2 0 38 3 65 7 62 3 -4 5 -33 4 -64z m409 57 c0 -6 -31 -10 -74
-10 -41 0 -78 5 -81 10 -4 6 23 10 74 10 47 0 81 -4 81 -10z m498 -21 c6 -48
-49 -63 -63 -18 -9 26 13 51 39 47 14 -2 22 -12 24 -29z m-938 -49 c0 -27 -4
-50 -10 -50 -5 0 -10 23 -10 50 0 28 5 50 10 50 6 0 10 -22 10 -50z m1675 23
c13 -16 24 -32 24 -38 0 -5 -6 -2 -14 9 -8 10 -19 15 -26 10 -8 -4 -10 -3 -5
5 4 6 2 18 -4 26 -23 27 1 15 25 -12z m-1605 -28 c0 -25 -4 -45 -10 -45 -5 0
-10 20 -10 45 0 25 5 45 10 45 6 0 10 -20 10 -45z m1130 37 c0 -4 -21 -6 -47
-4 -76 5 -83 10 -15 11 34 0 62 -2 62 -7z m138 1 c-21 -2 -57 -2 -80 0 -24 2
-7 4 37 4 44 0 63 -2 43 -4z m-846 -10 c-40 -2 -103 -2 -140 0 -37 2 -4 3 73
3 77 0 107 -2 67 -3z m-532 -38 c0 -19 -4 -35 -10 -35 -5 0 -10 16 -10 35 0
19 5 35 10 35 6 0 10 -16 10 -35z m150 0 c0 -19 -4 -35 -10 -35 -5 0 -10 16
-10 35 0 19 5 35 10 35 6 0 10 -16 10 -35z m-193 -22 c-3 -10 -5 -5 -5 12 0
17 2 24 5 18 2 -7 2 -21 0 -30z m220 0 c-3 -10 -5 -5 -5 12 0 17 2 24 5 18 2
-7 2 -21 0 -30z m740 0 c-3 -10 -5 -5 -5 12 0 17 2 24 5 18 2 -7 2 -21 0 -30z
m70 0 c-3 -10 -5 -5 -5 12 0 17 2 24 5 18 2 -7 2 -21 0 -30z m-1472 2 c0 -11
-7 -21 -16 -23 -18 -3 -33 23 -23 39 10 17 39 5 39 -16z m63 18 c-10 -2 -18
-11 -18 -19 0 -17 12 -18 29 -1 10 10 11 9 6 -5 -8 -20 -30 -24 -40 -8 -11 17
3 40 22 39 17 -1 17 -2 1 -6z m87 -18 c0 -28 -29 -25 -33 3 -3 19 0 23 15 20
10 -2 18 -12 18 -23z m742 -7 c-3 -8 -6 -5 -6 6 -1 11 2 17 5 13 3 -3 4 -12 1
-19z m37 6 c3 -8 2 -12 -4 -9 -6 3 -10 10 -10 16 0 14 7 11 14 -7z m701 7 c7
-12 -12 -24 -25 -16 -11 7 -4 25 10 25 5 0 11 -4 15 -9z"/>
<path d="M1550 2529 c0 -5 5 -7 10 -4 6 3 10 8 10 11 0 2 -4 4 -10 4 -5 0 -10
-5 -10 -11z"/>
<path d="M1855 2561 c-8 -27 3 -61 19 -61 7 0 21 9 32 21 14 15 16 24 8 37
-16 26 -51 27 -59 3z"/>
<path d="M160 2395 c0 -8 7 -15 15 -15 8 0 15 7 15 15 0 8 -7 15 -15 15 -8 0
-15 -7 -15 -15z"/>
<path d="M1786 2391 c-4 -5 -2 -12 3 -15 5 -4 12 -2 15 3 4 5 2 12 -3 15 -5 4
-12 2 -15 -3z"/>
<path d="M2503 2304 c-3 -8 -1 -20 6 -27 14 -14 47 15 37 32 -10 16 -36 13
-43 -5z"/>
<path d="M1860 2274 c0 -8 5 -12 10 -9 6 4 8 11 5 16 -9 14 -15 11 -15 -7z"/>
<path d="M174 1996 c-3 -8 -4 -27 -2 -43 3 -25 7 -28 38 -28 34 0 35 1 35 40
0 38 -2 40 -33 43 -21 2 -34 -2 -38 -12z m46 -31 c0 -8 -4 -15 -10 -15 -5 0
-10 7 -10 15 0 8 5 15 10 15 6 0 10 -7 10 -15z"/>
<path d="M957 2014 c-8 -8 1 -24 14 -24 5 0 9 7 9 15 0 15 -12 20 -23 9z"/>
<path d="M1025 1870 c3 -5 8 -10 11 -10 2 0 4 5 4 10 0 6 -5 10 -11 10 -5 0
-7 -4 -4 -10z"/>
<path d="M1695 1880 c-3 -5 -1 -10 4 -10 6 0 11 5 11 10 0 6 -2 10 -4 10 -3 0
-8 -4 -11 -10z"/>
<path d="M1610 1849 c0 -5 5 -7 10 -4 6 3 10 8 10 11 0 2 -4 4 -10 4 -5 0 -10
-5 -10 -11z"/>
<path d="M1600 1820 c0 -5 5 -10 10 -10 6 0 10 5 10 10 0 6 -4 10 -10 10 -5 0
-10 -4 -10 -10z"/>
<path d="M1720 1820 c0 -5 5 -10 10 -10 6 0 10 5 10 10 0 6 -4 10 -10 10 -5 0
-10 -4 -10 -10z"/>
<path d="M1605 1790 c-3 -5 -1 -10 4 -10 6 0 11 5 11 10 0 6 -2 10 -4 10 -3 0
-8 -4 -11 -10z"/>
<path d="M1720 1789 c0 -5 5 -7 10 -4 6 3 10 8 10 11 0 2 -4 4 -10 4 -5 0 -10
-5 -10 -11z"/>
<path d="M1170 1309 c-53 -167 -55 -173 -42 -165 6 3 13 20 17 36 7 30 7 30
75 30 l68 0 12 -35 c6 -19 15 -35 20 -35 5 0 -15 70 -43 155 -28 85 -54 155
-57 155 -3 0 -25 -64 -50 -141z"/>
<path d="M2066 1312 c-27 -81 -52 -153 -54 -161 -4 -9 -1 -12 6 -7 6 4 15 21
20 38 8 30 8 30 77 30 50 0 70 -4 74 -13 12 -40 22 -61 26 -57 4 4 -90 307
-98 314 -1 2 -25 -63 -51 -144z"/>
<path d="M2530 1585 c0 -10 7 -15 18 -13 21 4 19 22 -2 26 -10 2 -16 -3 -16
-13z"/>
<path d="M24 1275 c-7 -18 3 -35 21 -35 15 0 24 19 18 38 -6 17 -32 15 -39 -3z"/>
<path d="M2180 620 c0 -5 4 -10 9 -10 6 0 13 5 16 10 3 6 -1 10 -9 10 -9 0
-16 -4 -16 -10z"/>
<path d="M2180 550 c0 -5 4 -10 9 -10 6 0 13 5 16 10 3 6 -1 10 -9 10 -9 0
-16 -4 -16 -10z"/>
<path d="M1472 430 c0 -14 2 -19 5 -12 2 6 2 18 0 25 -3 6 -5 1 -5 -13z"/>
<path d="M1520 435 c0 -8 5 -15 10 -15 6 0 10 7 10 15 0 8 -4 15 -10 15 -5 0
-10 -7 -10 -15z"/>
<path d="M1571 434 c0 -11 3 -14 6 -6 3 7 2 16 -1 19 -3 4 -6 -2 -5 -13z"/>
<path d="M1076 365 c-55 -51 -22 -155 50 -155 77 0 111 87 58 149 -32 38 -71
41 -108 6z"/>
<path d="M40 210 c0 -5 7 -10 16 -10 8 0 12 5 9 10 -3 6 -10 10 -16 10 -5 0
-9 -4 -9 -10z"/>
<path d="M40 166 c0 -9 7 -16 16 -16 9 0 14 5 12 12 -6 18 -28 21 -28 4z"/>
<path d="M946 221 c-4 -7 -5 -15 -2 -18 9 -9 19 4 14 18 -4 11 -6 11 -12 0z"/>
<path d="M1480 115 c0 -20 4 -26 18 -23 9 2 17 12 17 23 0 11 -8 21 -17 23
-14 3 -18 -3 -18 -23z m30 1 c0 -3 -4 -8 -10 -11 -5 -3 -10 -1 -10 4 0 6 5 11
10 11 6 0 10 -2 10 -4z"/>
<path d="M35 41 c-6 -11 9 -23 19 -14 9 9 7 23 -3 23 -6 0 -12 -4 -16 -9z"/>
<path d="M190 35 c0 -8 5 -15 10 -15 6 0 10 7 10 15 0 8 -4 15 -10 15 -5 0
-10 -7 -10 -15z"/>
</g>
</svg>
